<?xml version="1.0" encoding="UTF-8"?> <svg xmlns="http://www.w3.org/2000/svg" version="1.1" id="Warstwa_1" x="0" y="0" viewBox="0 0 39 39" xml:space="preserve"><style>.st0{fill:#282727}</style><path class="st0" d="M19.5.4C30 .4 38.6 9 38.6 19.5c0 10.5-8.5 19.1-19.1 19.1S.4 30 .4 19.5C.4 9 9 .4 19.5.4m0-.4C14.3 0 9.4 2 5.7 5.7S0 14.3 0 19.5s2 10.1 5.7 13.8C9.4 37 14.3 39 19.5 39s10.1-2 13.8-5.7C37 29.6 39 24.7 39 19.5S37 9.4 33.3 5.7C29.6 2 24.7 0 19.5 0z"></path><path class="st0" d="M19.5 6.3c7.3 0 13.2 5.9 13.2 13.2 0 7.3-5.9 13.2-13.2 13.2S6.3 26.8 6.3 19.5c0-7.3 5.9-13.2 13.2-13.2m0-.4C12 5.9 5.9 12 5.9 19.5S12 33.1 19.5 33.1 33.1 27 33.1 19.5 27 5.9 19.5 5.9zm-6 27.2c-.2-.2-.3-.4-.5-.5l.2-.3c.2.2.4.4.6.7.3-.1.6 0 .9.1.3.1.6.3.8.5.2.2.3.5.4.9 0 .3 0 .7-.1 1-.1.3-.3.6-.5.9-.2.2-.5.4-.8.4-.3.1-.6 0-.9-.1-.3-.1-.6-.3-.8-.5-.2-.2-.3-.5-.4-.9 0-.3 0-.7.1-1 .1-.3.2-.5.4-.7.1-.2.3-.4.6-.5zm.8 1c-.2-.2-.4-.4-.5-.6-.4.2-.6.5-.8 1-.1.3-.1.5-.1.8 0 .2.1.5.3.6.1.2.3.3.6.4.3.1.7.1 1-.1.3-.2.5-.5.7-.9.2-.5.2-.8 0-1.2-.1-.3-.4-.5-.7-.7-.2-.1-.3-.1-.5-.1.1.1.2.3.4.4l-.4.4z"></path><path class="st0" d="M8.3 33.8l-.4-.3 1.2-1.8c.2-.3.4-.5.6-.7.2-.1.4-.2.7-.2.3 0 .5.1.8.3.3.2.5.4.6.6.1.2.1.5.1.7-.1.2-.2.5-.4.8L10.3 35l-.4-.3 1.2-1.8c.2-.3.3-.5.3-.6 0-.2 0-.3-.1-.5s-.2-.3-.4-.4c-.3-.2-.6-.3-.8-.2-.2 0-.5.3-.7.6l-1.1 2zm1.3-3.6l-3.7 1.3-.3-.4 1.8-3.6.3.5-.6 1 1 1.2 1.1-.4.4.4zm-1.9.1l-.8-1-.5 1c-.2.3-.3.6-.4.7.2-.1.4-.2.7-.3l1-.4zm-.6-3.2l-3.3 1.7-.2-.4 2.9-1.5-.8-1.6.4-.3 1 2.1zm-1.3-2.9l-3.5 1.1-.2-.5 3.5-1.1.2.5zm-.6-2.4l-3.2.4.2 1.2-.4.1-.4-2.9.4-.1.2 1.2 3.2-.5v.6zm-.1-3.4l-1.6-.1-2.3 1.2.1-.6 1.2-.6c.2-.1.4-.2.7-.3-.2-.1-.4-.3-.6-.5l-1-.8.1-.6 2 1.7 1.6.1-.2.5zm1.3-6.1c.1.2.1.4.1.6 0 .2 0 .4-.1.6-.2.3-.4.6-.7.6-.3.1-.5 0-.7-.1-.2-.1-.4-.3-.5-.5-.1-.2-.2-.5-.1-.8-.2.1-.4.1-.6.1-.1 0-.2 0-.3-.1-.3 0-.5-.1-.5-.4-.1-.2 0-.5.1-.7.1-.2.3-.4.5-.5.2-.1.4-.1.6 0 .3.2.5.5.5 1l1-.1c-.1-.1-.2-.3-.4-.4l.3-.4c.3.2.4.4.6.6.3-.1.5-.1.8-.3l.1.5c-.2.2-.4.2-.7.3zm-2.1 0c0-.2-.1-.4-.1-.5-.1-.1-.1-.2-.2-.2-.1-.1-.2-.1-.3 0-.1 0-.2.1-.2.2-.1.1-.1.2 0 .3s.1.2.2.2h.6zm1.7.1l-1.3.3c0 .3.1.5.1.6s.2.2.3.3c.1.1.3.1.5 0s.3-.2.4-.4c.1-.1.1-.3.1-.4 0-.1-.1-.2-.1-.4zm2.6-2.5L6.1 7.2 7.3 6c.2-.2.4-.4.6-.4.2-.1.4-.1.5 0 .2.1.4.2.5.3.2.2.3.4.3.7 0 .2-.1.5-.3.8.1 0 .3-.1.3-.1.2 0 .4 0 .6.1l1.2.3-.5.4-.9-.3c-.2 0-.4-.1-.6-.1h-.4c-.1 0-.2 0-.2.1l-.2.2-.4.3 1.1 1.2-.3.4zM7.5 8l.8-.7c.2-.1.3-.3.4-.4.1-.1.1-.2.1-.4 0-.1-.1-.2-.2-.3-.2-.1-.3-.2-.5-.2-.1 0-.3.1-.5.3l-.9.8.8.9zm4-.6L9.8 4.1l2.4-1.3.2.4-1.9 1 .5 1 1.8-1 .2.4-1.8 1 .6 1.1 2-1.1.2.4-2.5 1.4zm3.2-1.6l-1-3.6.5-.1.8 3.2 1.8-.5.1.4-2.2.6zm3.1-.7l-.4-3.7h.5l.4 3.7h-.5zm1.1-.2l1.7-3.6h.5l1.2 3.8h-.6L21.5 4 20 3.9 19.4 5l-.5-.1zm1.2-1.4l1.3.1-.3-1.1c-.1-.3-.2-.5-.2-.7-.1.2-.2.5-.3.7l-.5 1zm2.8 1.9l1.2-3.5 1.3.4c.3.1.5.2.6.3.1.1.2.3.3.5v.5c-.1.1-.2.3-.3.4-.1.1-.3.2-.5.2.2.1.3.3.4.5.1.2.1.4 0 .6-.1.2-.1.3-.3.4-.1.1-.2.2-.4.2s-.2.1-.4 0c-.2 0-.4-.1-.6-.1l-1.3-.4zm.6-.3l.9.3c.2.1.3.1.3.1h.3c.1 0 .2-.1.2-.1.1-.1.1-.2.2-.3v-.4c0-.1-.1-.2-.2-.3-.1-.1-.3-.2-.5-.2l-.8-.3-.4 1.2zm.5-1.6l.8.3c.2.1.4.1.5.1.1 0 .2 0 .3-.1.1-.1.2-.2.2-.3v-.3c0-.1-.1-.2-.2-.3s-.3-.1-.5-.2l-.7-.2-.4 1zm2.3 3.2l1.8-3.2.4.2L26.8 7l-.5-.3zm1.4.8L30 4.6l.4.3-2 2.6 1.4 1.1-.3.3-1.8-1.4zM30 9.6l2.7-2.5.3.4-2.6 2.5-.4-.4zm1.6 1.9l2.8-1.8-.7-1 .3-.2 1.6 2.5-.4.2-.7-1-2.7 1.8-.2-.5zm1.5 3.1l1.5-.5 1.6-2 .2.6-.8 1.1c-.2.2-.3.4-.5.6.2 0 .5.1.8.2l1.3.3.2.5-2.5-.7-1.7.3-.1-.4zm.9 4l3.7.1v1.4c0 .2 0 .4-.1.6 0 .2-.1.3-.2.5-.1.1-.2.2-.4.3-.2.1-.3.1-.5.1-.3 0-.6-.1-.8-.3-.2-.2-.3-.6-.3-1.1v-1h-1.5l.1-.6zm1.9.5v1c0 .3 0 .5.2.7.1.1.3.2.5.2s.3 0 .4-.1c.1-.1.2-.2.2-.3v-1.4l-1.3-.1zm-.3 3.4c.6.2 1 .5 1.2.9.2.4.3.9.1 1.4-.1.3-.3.6-.5.8-.2.2-.5.4-.8.4-.3.1-.7 0-1-.1-.4-.1-.7-.3-.9-.5-.2-.2-.4-.5-.5-.8-.1-.3-.1-.6 0-.9.1-.3.3-.6.5-.8.2-.2.5-.3.8-.4.4-.1.8-.1 1.1 0zm-.2.5c-.4-.1-.8-.1-1.1 0-.3.2-.5.4-.6.8-.1.4-.1.7.1 1 .2.3.5.5 1 .7.3.1.6.1.8.1.2 0 .5-.1.6-.3.2-.2.3-.3.4-.6.1-.3.1-.7-.1-1-.2-.3-.6-.5-1.1-.7zm-3 3l3.2 1.9-.3.4-2.8-1.7-.9 1.6-.4-.2 1.2-2zm-.6 3.3l-.3.4c-.1-.1-.3-.2-.4-.2-.1 0-.3 0-.5.1s-.3.2-.5.3c-.1.1-.2.3-.3.4-.1.1-.1.3-.1.4 0 .1.1.2.2.3.1.1.2.1.3.1.1 0 .2 0 .4-.1.1 0 .3-.2.6-.3.3-.2.5-.3.7-.4.2-.1.4-.1.5 0 .2 0 .3.1.4.2.1.1.2.3.3.5 0 .2 0 .4-.1.6s-.2.4-.4.6c-.2.2-.4.3-.6.4-.2.1-.4.1-.6.1-.2 0-.4-.1-.5-.3l.3-.4c.2.1.4.2.6.2.2 0 .4-.1.6-.3.2-.2.3-.4.3-.6 0-.2 0-.3-.1-.4-.1-.1-.2-.1-.3-.1-.1 0-.4.1-.7.3-.3.2-.6.4-.7.4-.2.1-.4.1-.6.1s-.3-.1-.5-.3c-.1-.1-.2-.3-.3-.5s0-.4 0-.6c.1-.2.2-.4.4-.6.2-.2.5-.4.7-.5.2-.1.5-.1.7-.1.1 0 .3.1.5.3zm-3.5 1.8l2 3.1-.4.3-1-1.6-.6 2.5-.6.4.5-2.1-2.5-1 .5-.3 2.1.9.2-.8-.7-1.1.5-.3zm-2.8 1.6l-.2 4-.5.2-2.6-3.1.5-.2.8.9L25 34v-1.2l.5-.1zm-.5 1.8l-1.2.4.7.9c.2.3.4.5.5.7v-2zM20 36l.8-.6h-1l-.3-1-.3 1h-1l.8.6-.3 1 .8-.6.8.6zM8.2 23.4h22.5v.4H8.2zm0-8.2h22.5v.4H8.2zm0 6.3v-4.1h.5v4.1h-.5zm1.2-1.3h.5c0 .2.1.4.2.5s.2.2.4.3c.2.1.4.1.6.1.2 0 .4 0 .5-.1.2-.1.3-.1.4-.3.1-.1.1-.2.1-.3 0-.1 0-.2-.1-.3-.1-.1-.2-.2-.4-.2-.1 0-.4-.1-.7-.2-.4-.1-.6-.2-.8-.3-.2-.1-.3-.2-.4-.4-.1-.2-.1-.3-.1-.5s.1-.4.2-.6c.1-.2.3-.3.5-.4.2-.1.5-.1.7-.1.3 0 .6 0 .8.1.2.1.4.2.5.4.1.2.2.4.2.6H12c0-.3-.1-.5-.3-.6-.2-.1-.4-.2-.7-.2-.3 0-.6.1-.7.2-.1.1-.2.3-.2.4 0 .1.1.3.2.4.1.1.4.2.8.3.4.1.7.2.9.3.2.1.4.2.5.4.1.2.2.4.2.6 0 .2-.1.4-.2.6-.1.2-.3.3-.5.4-.2.1-.5.2-.8.2-.4 0-.7-.1-.9-.2-.3 0-.5-.1-.7-.3-.1-.2-.2-.5-.2-.8zm3.7-.6c0-.7.2-1.2.5-1.6.4-.4.8-.6 1.4-.6.4 0 .7.1 1 .3.3.2.5.4.7.8s.2.7.2 1.1c0 .4-.1.8-.3 1.1-.2.3-.4.6-.7.7-.3.2-.6.3-1 .3s-.7-.1-1-.3c-.3-.2-.5-.4-.7-.8 0-.3-.1-.7-.1-1zm.6 0c0 .5.1.9.4 1.2.3.3.6.4 1 .4s.7-.1 1-.4c.3-.3.4-.7.4-1.2 0-.3-.1-.6-.2-.9s-.3-.4-.5-.6c-.2-.1-.5-.2-.7-.2-.4 0-.7.1-1 .4-.3.2-.4.7-.4 1.3zm5.5 1h.5c0 .2.1.4.2.5.1.1.3.2.4.2.2 0 .3 0 .4-.1l.3-.3c.1-.1.1-.3.2-.5s.1-.4.1-.6v-.1c-.1.2-.2.3-.4.4-.2.1-.4.1-.6.1-.3 0-.6-.1-.9-.4-.2-.2-.4-.6-.4-1s.1-.7.4-1c.2-.3.5-.4.9-.4.3 0 .5.1.7.2.2.1.4.3.5.6.1.3.2.6.2 1.1 0 .5-.1.9-.2 1.2s-.3.5-.5.7c-.2.2-.5.2-.8.2-.3 0-.6-.1-.8-.3-.1.1-.2-.2-.2-.5zm2-1.8c0-.3-.1-.5-.2-.7-.2-.2-.3-.3-.6-.3-.2 0-.4.1-.6.3-.2.2-.2.4-.2.7 0 .3.1.5.2.6.2.2.4.2.6.2.2 0 .4-.1.6-.2.1-.1.2-.3.2-.6zm1.1.7c0-.5 0-.9.1-1.2.1-.3.2-.5.4-.7.2-.2.4-.2.7-.2.2 0 .4 0 .6.1.2.1.3.2.4.4l.3.6c.1.2.1.6.1 1 0 .5 0 .9-.1 1.2-.1.3-.2.5-.4.7-.2.2-.4.2-.7.2-.4 0-.7-.1-.9-.4-.4-.3-.5-.9-.5-1.7zm.5 0c0 .7.1 1.1.2 1.3.2.2.4.3.6.3.2 0 .4-.1.6-.3.2-.2.2-.7.2-1.3 0-.7-.1-1.1-.2-1.3-.2-.2-.4-.3-.6-.3-.2 0-.4.1-.6.3-.1.2-.2.7-.2 1.3zm2.7 0c0-.5 0-.9.1-1.2.1-.3.2-.5.4-.7.2-.2.4-.2.7-.2.2 0 .4 0 .6.1.2.1.3.2.4.4l.3.6c.1.2.1.6.1 1 0 .5 0 .9-.1 1.2-.1.3-.2.5-.4.7-.2.2-.4.2-.7.2-.4 0-.7-.1-.9-.4-.4-.3-.5-.9-.5-1.7zm.5 0c0 .7.1 1.1.2 1.3.2.2.4.3.6.3.2 0 .4-.1.6-.3.2-.2.2-.7.2-1.3 0-.7-.1-1.1-.2-1.3-.2-.2-.4-.3-.6-.3-.2 0-.4.1-.6.3-.1.2-.2.7-.2 1.3zm4.3 2h-.5v-3.2c-.1.1-.3.2-.5.3-.2.1-.4.2-.5.3v-.5c.3-.1.5-.3.7-.5.2-.2.4-.4.4-.5h.3v4.1z"></path></svg> 