<?xml version="1.0" encoding="UTF-8"?> <svg xmlns="http://www.w3.org/2000/svg" version="1.1" id="Warstwa_1" x="0" y="0" viewBox="0 0 49.6 49.6" xml:space="preserve"><style>.st0{fill:#ff7d00}</style><path class="st0" d="M24.8 30.6c-.5 0-.9-.2-1.3-.5l-12.8-12c-.5-.5-.9-1.4-.9-2.1v-.9c0-1 .8-1.8 1.8-1.8h26.6c1 0 1.8.8 1.8 1.8v.9c0 .7-.4 1.6-.9 2.1l-13 12.1c-.4.3-.8.4-1.3.4zM11.5 15.1v.9c0 .2.2.7.4.8l12.9 12.1h.1l12.9-12.1c.2-.2.4-.6.4-.8v-.9H11.5zm26.6 0h.9-.9z"></path><path class="st0" d="M38.1 36.3H11.5c-1 0-1.8-.8-1.8-1.8V20.4h1.8v14.2h26.6V20.4h1.8v14.2c0 .9-.8 1.7-1.8 1.7z"></path><path class="st0" d="M38.1 49.6H11.5C5.2 49.6 0 44.4 0 38.1V11.5C0 5.2 5.2 0 11.5 0h26.6c6.3 0 11.5 5.2 11.5 11.5v26.6c0 6.3-5.2 11.5-11.5 11.5zM11.5 1.8c-5.4 0-9.7 4.4-9.7 9.7v26.6c0 5.4 4.4 9.7 9.7 9.7h26.6c5.4 0 9.7-4.4 9.7-9.7V11.5c0-5.4-4.4-9.7-9.7-9.7H11.5z"></path></svg> 