<?xml version="1.0" encoding="utf-8"?>
<!-- Generator: Adobe Illustrator 23.0.6, SVG Export Plug-In . SVG Version: 6.00 Build 0)  -->
<svg version="1.1" id="Warstwa_1" xmlns="http://www.w3.org/2000/svg" xmlns:xlink="http://www.w3.org/1999/xlink" x="0px" y="0px"
	 viewBox="0 0 39 39" style="enable-background:new 0 0 39 39;" xml:space="preserve">
<style type="text/css">
	.st0{fill:#282727;}
</style>
<g>
	<g>
		<path class="st0" d="M19.5,0.4C30,0.4,38.6,9,38.6,19.5c0,10.5-8.5,19.1-19.1,19.1S0.4,30,0.4,19.5C0.4,9,9,0.4,19.5,0.4 M19.5,0
			C14.3,0,9.4,2,5.7,5.7S0,14.3,0,19.5s2,10.1,5.7,13.8c3.7,3.7,8.6,5.7,13.8,5.7s10.1-2,13.8-5.7c3.7-3.7,5.7-8.6,5.7-13.8
			s-2-10.1-5.7-13.8C29.6,2,24.7,0,19.5,0L19.5,0z"/>
	</g>
	<g>
		<path class="st0" d="M19.5,6.3c7.3,0,13.2,5.9,13.2,13.2c0,7.3-5.9,13.2-13.2,13.2S6.3,26.8,6.3,19.5C6.3,12.2,12.2,6.3,19.5,6.3
			 M19.5,5.9C12,5.9,5.9,12,5.9,19.5c0,7.5,6.1,13.6,13.6,13.6c7.5,0,13.6-6.1,13.6-13.6C33.1,12,27,5.9,19.5,5.9L19.5,5.9z"/>
	</g>
	<g>
		<path class="st0" d="M13.5,33.1c-0.2-0.2-0.3-0.4-0.5-0.5l0.2-0.3c0.2,0.2,0.4,0.4,0.6,0.7c0.3-0.1,0.6,0,0.9,0.1
			c0.3,0.1,0.6,0.3,0.8,0.5c0.2,0.2,0.3,0.5,0.4,0.9c0,0.3,0,0.7-0.1,1c-0.1,0.3-0.3,0.6-0.5,0.9c-0.2,0.2-0.5,0.4-0.8,0.4
			c-0.3,0.1-0.6,0-0.9-0.1c-0.3-0.1-0.6-0.3-0.8-0.5c-0.2-0.2-0.3-0.5-0.4-0.9c0-0.3,0-0.7,0.1-1c0.1-0.3,0.2-0.5,0.4-0.7
			C13,33.4,13.2,33.2,13.5,33.1z M14.3,34.1c-0.2-0.2-0.4-0.4-0.5-0.6c-0.4,0.2-0.6,0.5-0.8,1c-0.1,0.3-0.1,0.5-0.1,0.8
			c0,0.2,0.1,0.5,0.3,0.6c0.1,0.2,0.3,0.3,0.6,0.4c0.3,0.1,0.7,0.1,1-0.1c0.3-0.2,0.5-0.5,0.7-0.9c0.2-0.5,0.2-0.8,0-1.2
			c-0.1-0.3-0.4-0.5-0.7-0.7c-0.2-0.1-0.3-0.1-0.5-0.1c0.1,0.1,0.2,0.3,0.4,0.4L14.3,34.1z"/>
		<path class="st0" d="M8.3,33.8l-0.4-0.3l1.2-1.8c0.2-0.3,0.4-0.5,0.6-0.7c0.2-0.1,0.4-0.2,0.7-0.2c0.3,0,0.5,0.1,0.8,0.3
			c0.3,0.2,0.5,0.4,0.6,0.6c0.1,0.2,0.1,0.5,0.1,0.7c-0.1,0.2-0.2,0.5-0.4,0.8l-1.2,1.8l-0.4-0.3l1.2-1.8c0.2-0.3,0.3-0.5,0.3-0.6
			c0-0.2,0-0.3-0.1-0.5c-0.1-0.2-0.2-0.3-0.4-0.4c-0.3-0.2-0.6-0.3-0.8-0.2c-0.2,0-0.5,0.3-0.7,0.6L8.3,33.8z"/>
		<path class="st0" d="M9.6,30.2l-3.7,1.3l-0.3-0.4l1.8-3.6l0.4,0.4L7.1,29l1,1.2l1.1-0.4L9.6,30.2z M7.7,30.3l-0.8-1l-0.5,1
			C6.2,30.6,6.1,30.9,6,31c0.2-0.1,0.4-0.2,0.7-0.3L7.7,30.3z"/>
		<path class="st0" d="M7.1,27.1l-3.3,1.7l-0.2-0.4l2.9-1.5l-0.8-1.6L6.1,25L7.1,27.1z"/>
		<path class="st0" d="M5.8,24.2l-3.5,1.1l-0.2-0.5l3.5-1.1L5.8,24.2z"/>
		<path class="st0" d="M5.2,21.8L2,22.2l0.2,1.2l-0.4,0.1l-0.4-2.9l0.4-0.1l0.2,1.2l3.2-0.5L5.2,21.8z"/>
		<path class="st0" d="M5.1,18.4l-1.6-0.1l-2.3,1.2l0.1-0.6l1.2-0.6c0.2-0.1,0.4-0.2,0.7-0.3c-0.2-0.1-0.4-0.3-0.6-0.5l-1-0.8
			l0.1-0.6l2,1.7l1.6,0.1L5.1,18.4z"/>
		<path class="st0" d="M6.4,12.3c0.1,0.2,0.1,0.4,0.1,0.6c0,0.2,0,0.4-0.1,0.6c-0.2,0.3-0.4,0.6-0.7,0.6c-0.3,0.1-0.5,0-0.7-0.1
			c-0.2-0.1-0.4-0.3-0.5-0.5c-0.1-0.2-0.2-0.5-0.1-0.8c-0.2,0.1-0.4,0.1-0.6,0.1c-0.1,0-0.2,0-0.3-0.1C3.2,12.7,3,12.6,3,12.3
			c-0.1-0.2,0-0.5,0.1-0.7c0.1-0.2,0.3-0.4,0.5-0.5c0.2-0.1,0.4-0.1,0.6,0c0.3,0.2,0.5,0.5,0.5,1L5.7,12c-0.1-0.1-0.2-0.3-0.4-0.4
			l0.3-0.4c0.3,0.2,0.4,0.4,0.6,0.6c0.3-0.1,0.5-0.1,0.8-0.3L7.1,12C6.9,12.2,6.7,12.2,6.4,12.3z M4.3,12.3c0-0.2-0.1-0.4-0.1-0.5
			c-0.1-0.1-0.1-0.2-0.2-0.2c-0.1-0.1-0.2-0.1-0.3,0c-0.1,0-0.2,0.1-0.2,0.2c-0.1,0.1-0.1,0.2,0,0.3s0.1,0.2,0.2,0.2
			c0.1,0,0.1,0,0.2,0c0.1,0,0.1,0,0.2,0L4.3,12.3z M6,12.4l-1.3,0.3c0,0.3,0.1,0.5,0.1,0.6s0.2,0.2,0.3,0.3c0.1,0.1,0.3,0.1,0.5,0
			c0.2,0,0.3-0.2,0.4-0.4c0.1-0.1,0.1-0.3,0.1-0.4C6.1,12.7,6,12.6,6,12.4z"/>
		<path class="st0" d="M8.6,9.9L6.1,7.2L7.3,6c0.2-0.2,0.4-0.4,0.6-0.4c0.2-0.1,0.4-0.1,0.5,0c0.2,0.1,0.4,0.2,0.5,0.3
			c0.2,0.2,0.3,0.4,0.3,0.7c0,0.2-0.1,0.5-0.3,0.8c0.1,0,0.3-0.1,0.3-0.1c0.2,0,0.4,0,0.6,0.1L11,7.7l-0.5,0.4L9.6,7.8
			C9.4,7.8,9.2,7.7,9,7.7c-0.1,0-0.3,0-0.4,0c-0.1,0-0.2,0-0.2,0.1c0,0-0.1,0.1-0.2,0.2L7.8,8.3l1.1,1.2L8.6,9.9z M7.5,8l0.8-0.7
			C8.5,7.2,8.6,7,8.7,6.9c0.1-0.1,0.1-0.2,0.1-0.4c0-0.1-0.1-0.2-0.2-0.3C8.4,6.1,8.3,6,8.1,6C8,6,7.8,6.1,7.6,6.3L6.7,7.1L7.5,8z"
			/>
		<path class="st0" d="M11.5,7.4L9.8,4.1l2.4-1.3l0.2,0.4l-1.9,1l0.5,1l1.8-1l0.2,0.4l-1.8,1l0.6,1.1l2-1.1l0.2,0.4L11.5,7.4z"/>
		<path class="st0" d="M14.7,5.8l-1-3.6l0.5-0.1l0.8,3.2l1.8-0.5l0.1,0.4L14.7,5.8z"/>
		<path class="st0" d="M17.8,5.1l-0.4-3.7l0.5,0l0.4,3.7L17.8,5.1z"/>
		<path class="st0" d="M18.9,4.9l1.7-3.6l0.5,0l1.2,3.8l-0.6,0L21.5,4l-1.5-0.1L19.4,5L18.9,4.9z M20.1,3.5l1.3,0.1l-0.3-1.1
			C21,2.2,20.9,2,20.9,1.8c-0.1,0.2-0.2,0.5-0.3,0.7L20.1,3.5z"/>
		<path class="st0" d="M22.9,5.4l1.2-3.5l1.3,0.4c0.3,0.1,0.5,0.2,0.6,0.3c0.1,0.1,0.2,0.3,0.3,0.5c0,0.2,0,0.3,0,0.5
			C26.2,3.7,26.1,3.9,26,4c-0.1,0.1-0.3,0.2-0.5,0.2c0.2,0.1,0.3,0.3,0.4,0.5c0.1,0.2,0.1,0.4,0,0.6c-0.1,0.2-0.1,0.3-0.3,0.4
			c-0.1,0.1-0.2,0.2-0.4,0.2S25,6,24.8,5.9c-0.2,0-0.4-0.1-0.6-0.1L22.9,5.4z M23.5,5.1l0.9,0.3c0.2,0.1,0.3,0.1,0.3,0.1
			c0.1,0,0.2,0,0.3,0c0.1,0,0.2-0.1,0.2-0.1c0.1-0.1,0.1-0.2,0.2-0.3c0-0.1,0-0.3,0-0.4c0-0.1-0.1-0.2-0.2-0.3
			c-0.1-0.1-0.3-0.2-0.5-0.2l-0.8-0.3L23.5,5.1z M24,3.5l0.8,0.3c0.2,0.1,0.4,0.1,0.5,0.1c0.1,0,0.2,0,0.3-0.1
			c0.1-0.1,0.2-0.2,0.2-0.3c0-0.1,0-0.2,0-0.3c0-0.1-0.1-0.2-0.2-0.3s-0.3-0.1-0.5-0.2l-0.7-0.2L24,3.5z"/>
		<path class="st0" d="M26.3,6.7l1.8-3.2l0.4,0.2L26.8,7L26.3,6.7z"/>
		<path class="st0" d="M27.7,7.5L30,4.6l0.4,0.3l-2,2.6l1.4,1.1l-0.3,0.3L27.7,7.5z"/>
		<path class="st0" d="M30,9.6l2.7-2.5l0.3,0.4L30.4,10L30,9.6z"/>
		<path class="st0" d="M31.6,11.5l2.8-1.8l-0.7-1L34,8.5l1.6,2.5l-0.4,0.2l-0.7-1L31.8,12L31.6,11.5z"/>
		<path class="st0" d="M33.1,14.6l1.5-0.5l1.6-2l0.2,0.6l-0.8,1.1c-0.2,0.2-0.3,0.4-0.5,0.6c0.2,0,0.5,0.1,0.8,0.2l1.3,0.3l0.2,0.5
			l-2.5-0.7L33.2,15L33.1,14.6z"/>
		<path class="st0" d="M34,18.6l3.7,0.1l0,1.4c0,0.2,0,0.4-0.1,0.6c0,0.2-0.1,0.3-0.2,0.5c-0.1,0.1-0.2,0.2-0.4,0.3
			c-0.2,0.1-0.3,0.1-0.5,0.1c-0.3,0-0.6-0.1-0.8-0.3c-0.2-0.2-0.3-0.6-0.3-1.1l0-1l-1.5,0L34,18.6z M35.9,19.1l0,1
			c0,0.3,0,0.5,0.2,0.7c0.1,0.1,0.3,0.2,0.5,0.2c0.2,0,0.3,0,0.4-0.1c0.1-0.1,0.2-0.2,0.2-0.3c0-0.1,0-0.2,0-0.5l0-0.9L35.9,19.1z"
			/>
		<path class="st0" d="M35.6,22.5c0.6,0.2,1,0.5,1.2,0.9c0.2,0.4,0.3,0.9,0.1,1.4c-0.1,0.3-0.3,0.6-0.5,0.8
			c-0.2,0.2-0.5,0.4-0.8,0.4s-0.7,0-1-0.1c-0.4-0.1-0.7-0.3-0.9-0.5c-0.2-0.2-0.4-0.5-0.5-0.8c-0.1-0.3-0.1-0.6,0-0.9
			c0.1-0.3,0.3-0.6,0.5-0.8c0.2-0.2,0.5-0.3,0.8-0.4C34.9,22.4,35.3,22.4,35.6,22.5z M35.4,23c-0.4-0.1-0.8-0.1-1.1,0
			s-0.5,0.4-0.6,0.8c-0.1,0.4-0.1,0.7,0.1,1c0.2,0.3,0.5,0.5,1,0.7c0.3,0.1,0.6,0.1,0.8,0.1c0.2,0,0.5-0.1,0.6-0.3
			c0.2-0.2,0.3-0.3,0.4-0.6c0.1-0.3,0.1-0.7-0.1-1C36.3,23.4,35.9,23.2,35.4,23z"/>
		<path class="st0" d="M32.4,26l3.2,1.9l-0.3,0.4l-2.8-1.7l-0.9,1.6L31.2,28L32.4,26z"/>
		<path class="st0" d="M31.8,29.3l-0.3,0.4c-0.1-0.1-0.3-0.2-0.4-0.2c-0.1,0-0.3,0-0.5,0.1c-0.2,0.1-0.3,0.2-0.5,0.3
			c-0.1,0.1-0.2,0.3-0.3,0.4c-0.1,0.1-0.1,0.3-0.1,0.4c0,0.1,0.1,0.2,0.2,0.3c0.1,0.1,0.2,0.1,0.3,0.1c0.1,0,0.2,0,0.4-0.1
			c0.1,0,0.3-0.2,0.6-0.3c0.3-0.2,0.5-0.3,0.7-0.4c0.2-0.1,0.4-0.1,0.5,0c0.2,0,0.3,0.1,0.4,0.2c0.1,0.1,0.2,0.3,0.3,0.5
			c0,0.2,0,0.4-0.1,0.6c-0.1,0.2-0.2,0.4-0.4,0.6c-0.2,0.2-0.4,0.3-0.6,0.4c-0.2,0.1-0.4,0.1-0.6,0.1c-0.2,0-0.4-0.1-0.5-0.3
			l0.3-0.4c0.2,0.1,0.4,0.2,0.6,0.2c0.2,0,0.4-0.1,0.6-0.3c0.2-0.2,0.3-0.4,0.3-0.6c0-0.2,0-0.3-0.1-0.4c-0.1-0.1-0.2-0.1-0.3-0.1
			c-0.1,0-0.4,0.1-0.7,0.3c-0.3,0.2-0.6,0.4-0.7,0.4c-0.2,0.1-0.4,0.1-0.6,0.1c-0.2,0-0.3-0.1-0.5-0.3c-0.1-0.1-0.2-0.3-0.3-0.5
			c0-0.2,0-0.4,0-0.6c0.1-0.2,0.2-0.4,0.4-0.6c0.2-0.2,0.5-0.4,0.7-0.5c0.2-0.1,0.5-0.1,0.7-0.1S31.6,29.1,31.8,29.3z"/>
		<path class="st0" d="M28.3,31.1l2,3.1l-0.4,0.3l-1-1.6l-0.6,2.5l-0.6,0.4l0.5-2.1l-2.5-1l0.5-0.3l2.1,0.9l0.2-0.8l-0.7-1.1
			L28.3,31.1z"/>
		<path class="st0" d="M25.5,32.7l-0.2,4l-0.5,0.2l-2.6-3.1l0.5-0.2l0.8,0.9l1.5-0.5l0-1.2L25.5,32.7z M25,34.5l-1.2,0.4l0.7,0.9
			c0.2,0.3,0.4,0.5,0.5,0.7c0-0.2,0-0.5,0-0.7L25,34.5z"/>
	</g>
	<g>
		<polygon class="st0" points="20,36 20.8,35.4 19.8,35.4 19.5,34.4 19.2,35.4 18.2,35.4 19,36 18.7,37 19.5,36.4 19.5,36.4 
			19.5,36.4 20.3,37 		"/>
	</g>
	<g>
		<g>
			<rect x="8.2" y="23.4" class="st0" width="22.5" height="0.4"/>
		</g>
		<g>
			<rect x="8.2" y="15.2" class="st0" width="22.5" height="0.4"/>
		</g>
	</g>
	<g>
		<path class="st0" d="M9.8,21.5v-4.1h0.5v1.7h2.1v-1.7H13v4.1h-0.5v-1.9h-2.1v1.9H9.8z"/>
		<path class="st0" d="M13.6,21.5l1.6-4.1h0.6l1.7,4.1h-0.6l-0.5-1.2h-1.7l-0.4,1.2H13.6z M14.8,19.9h1.4l-0.4-1.1
			c-0.1-0.3-0.2-0.6-0.3-0.8c-0.1,0.3-0.1,0.5-0.2,0.8L14.8,19.9z"/>
		<path class="st0" d="M20.8,20.1l0.5,0.1c-0.1,0.4-0.3,0.8-0.6,1c-0.3,0.2-0.7,0.3-1.1,0.3c-0.4,0-0.8-0.1-1.1-0.3
			c-0.3-0.2-0.5-0.4-0.6-0.8c-0.1-0.3-0.2-0.7-0.2-1.1c0-0.4,0.1-0.8,0.2-1.1c0.2-0.3,0.4-0.6,0.7-0.7c0.3-0.2,0.6-0.2,1-0.2
			c0.4,0,0.8,0.1,1,0.3c0.3,0.2,0.5,0.5,0.6,0.9l-0.5,0.1c-0.1-0.3-0.2-0.5-0.4-0.6c-0.2-0.1-0.4-0.2-0.7-0.2
			c-0.3,0-0.6,0.1-0.8,0.2c-0.2,0.2-0.4,0.4-0.4,0.6c-0.1,0.3-0.1,0.5-0.1,0.8c0,0.3,0.1,0.6,0.2,0.9c0.1,0.3,0.3,0.5,0.5,0.6
			c0.2,0.1,0.4,0.2,0.7,0.2c0.3,0,0.6-0.1,0.8-0.3C20.5,20.7,20.7,20.5,20.8,20.1z"/>
		<path class="st0" d="M25,20.1l0.5,0.1c-0.1,0.4-0.3,0.8-0.6,1c-0.3,0.2-0.7,0.3-1.1,0.3c-0.4,0-0.8-0.1-1.1-0.3
			c-0.3-0.2-0.5-0.4-0.6-0.8c-0.1-0.3-0.2-0.7-0.2-1.1c0-0.4,0.1-0.8,0.2-1.1c0.2-0.3,0.4-0.6,0.7-0.7c0.3-0.2,0.6-0.2,1-0.2
			c0.4,0,0.8,0.1,1,0.3c0.3,0.2,0.5,0.5,0.6,0.9l-0.5,0.1c-0.1-0.3-0.2-0.5-0.4-0.6c-0.2-0.1-0.4-0.2-0.7-0.2
			c-0.3,0-0.6,0.1-0.8,0.2c-0.2,0.2-0.4,0.4-0.4,0.6c-0.1,0.3-0.1,0.5-0.1,0.8c0,0.3,0.1,0.6,0.2,0.9c0.1,0.3,0.3,0.5,0.5,0.6
			c0.2,0.1,0.4,0.2,0.7,0.2c0.3,0,0.6-0.1,0.8-0.3C24.7,20.7,24.9,20.5,25,20.1z"/>
		<path class="st0" d="M26.3,21.5v-4.1h1.5c0.3,0,0.5,0,0.6,0c0.2,0,0.4,0.1,0.5,0.2c0.1,0.1,0.2,0.2,0.3,0.4s0.1,0.4,0.1,0.6
			c0,0.3-0.1,0.6-0.3,0.9c-0.2,0.2-0.6,0.4-1.2,0.4h-1v1.7H26.3z M26.8,19.4h1.1c0.3,0,0.6-0.1,0.7-0.2c0.1-0.1,0.2-0.3,0.2-0.5
			c0-0.2,0-0.3-0.1-0.4c-0.1-0.1-0.2-0.2-0.3-0.2c-0.1,0-0.3,0-0.5,0h-1V19.4z"/>
	</g>
</g>
</svg>
