<?xml version="1.0" encoding="utf-8"?>
<!-- Generator: Adobe Illustrator 23.0.6, SVG Export Plug-In . SVG Version: 6.00 Build 0)  -->
<svg version="1.1" id="Warstwa_1" xmlns="http://www.w3.org/2000/svg" xmlns:xlink="http://www.w3.org/1999/xlink" x="0px" y="0px"
	 viewBox="0 0 51.8 33.7" style="enable-background:new 0 0 51.8 33.7;" xml:space="preserve">
<style type="text/css">
	.st0{fill:#282727;}
</style>
<g>
	<path class="st0" d="M7.2,28.5L7.2,28.5c0,0.4,0,0.7-0.3,0.9c-0.3,0.2-0.6,0.2-0.9,0.2c-0.8,0-1.4,0-1.4-1.1v-0.7
		c0-0.9,0.5-1.1,1.4-1.1c0.8,0,1.2,0.1,1.2,0.9v0.1H6.4v-0.1c0-0.3-0.2-0.3-0.5-0.3c-0.4,0-0.5,0.1-0.5,0.5v0.4c0,0.4,0,0.6,0.5,0.6
		c0.3,0,0.5,0,0.5-0.4v-0.1H7.2"/>
	<g>
		<path class="st0" d="M6.8,23.8l-0.1,0.5H5.9l0.9-2.9h1.2l0.9,2.9H8l-0.2-0.5H6.8 M7.4,22L7.4,22L7,23.3h0.7L7.4,22z"/>
		<path class="st0" d="M10.2,22.9c0-0.2-0.2-0.2-0.3-0.2c-0.3,0-0.3,0-0.3,0.2c0,0.1,0,0.2,0.3,0.2c0.7,0,1,0.1,1,0.6
			c0,0.6-0.5,0.7-1,0.7c-0.5,0-1,0-1-0.7h0.7c0,0.2,0.2,0.2,0.3,0.2c0.3,0,0.3,0,0.3-0.2c0-0.2-0.1-0.2-0.3-0.2c-0.8,0-1-0.2-1-0.6
			c0-0.6,0.4-0.7,1-0.7c0.4,0,0.9,0,0.9,0.5v0.1H10.2"/>
		<path class="st0" d="M12.5,22.9c0-0.2-0.2-0.2-0.3-0.2c-0.3,0-0.3,0-0.3,0.2c0,0.1,0,0.2,0.3,0.2c0.7,0,1,0.1,1,0.6
			c0,0.6-0.5,0.7-1,0.7c-0.5,0-1,0-1-0.7h0.7c0,0.2,0.2,0.2,0.3,0.2c0.3,0,0.3,0,0.3-0.2c0-0.2-0.1-0.2-0.3-0.2c-0.8,0-1-0.2-1-0.6
			c0-0.6,0.4-0.7,1-0.7c0.4,0,0.9,0,0.9,0.5v0.1H12.5"/>
		<path class="st0" d="M15.5,23.7c0,0.3-0.1,0.5-0.3,0.6c-0.2,0.1-0.4,0.1-0.7,0.1c-0.8,0-1-0.3-1-1c0-0.8,0.2-1,1-1
			c0.8,0,1,0.2,1,1v0.1h-1.3c0,0.4,0.1,0.5,0.3,0.5c0.2,0,0.3,0,0.3-0.2H15.5 M14.8,23.1c0-0.3-0.1-0.3-0.3-0.3
			c-0.2,0-0.3,0.1-0.3,0.3H14.8z"/>
		<path class="st0" d="M17,22.9c0-0.2-0.2-0.2-0.3-0.2c-0.3,0-0.3,0-0.3,0.2c0,0.1,0,0.2,0.3,0.2c0.7,0,1,0.1,1,0.6
			c0,0.6-0.5,0.7-1,0.7c-0.5,0-1,0-1-0.7h0.7c0,0.2,0.2,0.2,0.3,0.2c0.3,0,0.3,0,0.3-0.2c0-0.2-0.1-0.2-0.3-0.2c-0.8,0-1-0.2-1-0.6
			c0-0.6,0.4-0.7,1-0.7c0.4,0,0.9,0,0.9,0.5v0.1H17"/>
		<path class="st0" d="M19.3,22.9c0-0.2-0.2-0.2-0.3-0.2c-0.3,0-0.3,0-0.3,0.2c0,0.1,0,0.2,0.3,0.2c0.7,0,1,0.1,1,0.6
			c0,0.6-0.5,0.7-1,0.7c-0.5,0-1,0-1-0.7h0.7c0,0.2,0.2,0.2,0.3,0.2c0.3,0,0.3,0,0.3-0.2c0-0.2-0.1-0.2-0.3-0.2c-0.8,0-1-0.2-1-0.6
			c0-0.6,0.4-0.7,1-0.7c0.4,0,0.9,0,0.9,0.5v0.1H19.3"/>
		<path class="st0" d="M22.3,23.7c0,0.3-0.1,0.5-0.3,0.6c-0.2,0.1-0.4,0.1-0.7,0.1c-0.8,0-1-0.3-1-1c0-0.8,0.2-1,1-1
			c0.8,0,1,0.2,1,1v0.1H21c0,0.4,0.1,0.5,0.3,0.5c0.2,0,0.3,0,0.3-0.2H22.3 M21.6,23.1c0-0.3-0.1-0.3-0.3-0.3
			c-0.2,0-0.3,0.1-0.3,0.3H21.6z"/>
		<path class="st0" d="M24.6,24.3h-0.7l0-0.3h0c-0.1,0.3-0.3,0.4-0.6,0.4c-0.5,0-0.8-0.2-0.8-0.7v-0.5c0-0.6,0.2-0.9,0.8-0.9
			c0.2,0,0.5,0,0.6,0.3h0v-1.1h0.7V24.3 M23.6,23.9c0.3,0,0.4-0.1,0.4-0.5c0-0.4,0-0.5-0.4-0.5c-0.3,0-0.3,0.1-0.3,0.5
			C23.2,23.8,23.3,23.9,23.6,23.9z"/>
		<path class="st0" d="M9.5,28.6c0,0.8-0.2,1-1,1c-0.8,0-1-0.2-1-1c0-0.8,0.2-1,1-1C9.4,27.6,9.5,27.8,9.5,28.6 M8.2,28.6
			c0,0.4,0,0.5,0.4,0.5c0.3,0,0.3-0.1,0.3-0.5c0-0.4,0-0.5-0.3-0.5C8.2,28.1,8.2,28.2,8.2,28.6z"/>
		<path class="st0" d="M10.6,27.6v0.3h0c0.1-0.2,0.3-0.3,0.6-0.3c0.3,0,0.6,0,0.6,0.4h0c0-0.3,0.3-0.4,0.6-0.4
			c0.5,0,0.7,0.2,0.7,0.7v1.4h-0.7v-1.2c0-0.2,0-0.4-0.3-0.4c-0.3,0-0.3,0.2-0.3,0.4v1.1h-0.7v-1.2c0-0.2,0-0.3-0.3-0.3
			c-0.3,0-0.3,0.1-0.3,0.4v1.1H9.9v-2H10.6"/>
		<path class="st0" d="M13.6,27.6h0.7l0,0.3h0c0.1-0.3,0.3-0.3,0.6-0.3c0.5,0,0.8,0.2,0.8,0.7v0.5c0,0.6-0.2,0.9-0.8,0.9
			c-0.2,0-0.5,0-0.6-0.3h0v1.2h-0.7V27.6 M14.2,28.6c0,0.3,0,0.5,0.3,0.5c0.3,0,0.4-0.1,0.4-0.5c0-0.4,0-0.5-0.4-0.5
			C14.3,28.1,14.2,28.2,14.2,28.6z"/>
		<path class="st0" d="M17.3,29.3L17.3,29.3c-0.1,0.3-0.4,0.3-0.6,0.3c-0.5,0-0.7-0.1-0.7-0.6c0-0.5,0.3-0.6,0.7-0.6
			c0.2,0,0.5,0,0.6,0.2h0v-0.3c0-0.2,0-0.3-0.3-0.3c-0.2,0-0.3,0-0.3,0.2H16c0-0.6,0.5-0.6,0.9-0.6c0.7,0,1,0.1,1,0.8v1.3h-0.7
			L17.3,29.3 M16.6,29c0,0.2,0.2,0.2,0.3,0.2c0.3,0,0.4,0,0.4-0.2c0-0.2-0.1-0.2-0.4-0.2C16.7,28.8,16.6,28.8,16.6,29z"/>
		<path class="st0" d="M19.1,27.6V28h0c0.1-0.3,0.3-0.4,0.6-0.4c0.4,0,0.7,0.2,0.7,0.6v1.4h-0.7v-1.2c0-0.2-0.1-0.3-0.3-0.3
			c-0.3,0-0.3,0.2-0.3,0.4v1.1h-0.7v-2H19.1"/>
		<path class="st0" d="M22.2,29.8c-0.1,0.5-0.3,0.7-0.9,0.7c-0.1,0-0.2,0-0.2,0v-0.5c0,0,0.1,0,0.1,0c0.3,0,0.3-0.2,0.3-0.4h-0.4
			l-0.6-2h0.7l0.4,1.6h0l0.3-1.6h0.7L22.2,29.8"/>
		<path class="st0" d="M4,17.1h2.9c0,0.5,0.4,0.7,0.9,0.8c0.5,0.1,1.6,0.2,2.3,0c0.5-0.1,0.6-0.3,0.6-0.7c0-0.7,0-0.8-2.9-0.8
			c-2.4,0-3.9-0.3-3.9-2.2c0-1.4,0.6-2.4,3.5-2.4h2.6c2.7,0,3.4,0.9,3.4,2.2v0.2h-2.9c0-0.6-0.1-0.8-1.1-0.8H7.9
			c-0.5,0-0.9,0.2-0.9,0.6c0,0.7,0.3,0.8,2.8,0.8c1.9,0,4.1,0.1,4.1,2.3c0,2-2,2.4-4.2,2.4H6.9c-1,0-2.9-0.4-2.9-2V17.1"/>
		<path class="st0" d="M38.7,17.1h2.9c0,0.5,0.4,0.7,0.9,0.8c0.5,0.1,1.6,0.2,2.3,0c0.5-0.1,0.6-0.3,0.6-0.7c0-0.7,0-0.8-2.9-0.8
			c-2.4,0-3.9-0.3-3.9-2.2c0-1.4,0.6-2.4,3.5-2.4h2.6c2.7,0,3.4,0.9,3.4,2.2v0.2h-2.9c0-0.6-0.1-0.8-1.1-0.8h-1.6
			c-0.5,0-0.9,0.2-0.9,0.6c0,0.7,0.3,0.8,2.8,0.8c1.9,0,4.1,0.1,4.1,2.3c0,2-2,2.4-4.2,2.4h-2.8c-1,0-2.9-0.4-2.9-2V17.1"/>
		<path class="st0" d="M14.9,14.6c0-2.2,2.4-2.7,4.4-2.7h1.9c2.1,0,4.4,0.5,4.4,2.7v2.2c0,0.8-0.2,1-0.2,1l1.2,0.6l-1.3,1.1
			l-1.1-0.6c-0.6,0.4-1.8,0.6-2.8,0.6h-2.4c-2.1,0-4.2-0.5-4.2-2.7V14.6 M18.1,16.1c0,1.5,0.2,1.7,2.2,1.7c0.6,0,1.5-0.1,1.5-0.1
			c0.1,0-2.1-0.9-2.1-0.9l1.2-1.1l1.6,0.8v-1.2c0-0.9,0.2-1.7-2.2-1.7c-2.4,0-2.2,0.8-2.2,1.7V16.1z"/>
		<path class="st0" d="M30.4,11.9H35l3.5,7.5h-3l-0.7-1.3h-4.1L30,19.4h-3.2L30.4,11.9 M31.3,16.7h2.9l-1.5-3.3L31.3,16.7z"/>
		<path class="st0" d="M14,11.5h-2.6c0,0,13.8-10.2,27.2-11.3c3.4-0.3,7-0.4,10,1.2c6,3.3,1.8,10.1,1.8,10.1l-3.2,0.1
			c0,0,5.9-10.6-6.9-11.1C28,0.4,14.2,11,14,11.5"/>
		<path class="st0" d="M2.7,20.3c0,0-5.7,7.2-0.4,11.4c5.4,4.3,18.1,1.1,26.5-2.6c8.4-3.7,14-8.9,14-8.9h-2.5
			c0,0-10.8,10.3-24.2,12.7C2.8,35.3,0.8,28.1,5.7,20.3L2.7,20.3"/>
	</g>
</g>
</svg>
