<?xml version="1.0" encoding="utf-8"?>
<!-- Generator: Adobe Illustrator 23.0.6, SVG Export Plug-In . SVG Version: 6.00 Build 0)  -->
<svg version="1.1" id="Warstwa_1" xmlns="http://www.w3.org/2000/svg" xmlns:xlink="http://www.w3.org/1999/xlink" x="0px" y="0px"
	 viewBox="0 0 49.6 49.6" style="enable-background:new 0 0 49.6 49.6;" xml:space="preserve">
<style type="text/css">
	.st0{fill:#FF7D00;}
</style>
<g>
	<path class="st0" d="M38.6,38.6c-0.3,0-0.6-0.1-0.9-0.4l-3-2.4c-0.2-0.2-0.7-0.4-1-0.4H18.6c-1,0-1.8-0.8-1.8-1.8V17.7
		c0-1,0.8-1.8,1.8-1.8h19.5c1,0,1.8,0.8,1.8,1.8v19.5c0,0.6-0.3,1-0.7,1.3C39,38.5,38.8,38.6,38.6,38.6z M38.1,17.7H18.6v15.9h15.1
		c0.7,0,1.6,0.3,2.1,0.7l2.3,1.8V17.7z"/>
</g>
<g>
	<path class="st0" d="M11,34.2c-0.2,0-0.3,0-0.5-0.1c-0.4-0.2-0.7-0.7-0.7-1.3V13.3c0-1,0.8-1.8,1.8-1.8H31c1,0,1.8,0.8,1.8,1.8
		v15.9c0,1-0.8,1.8-1.8,1.8H15.9c-0.3,0-0.8,0.2-1,0.4l-3,2.4C11.6,34,11.3,34.2,11,34.2z M31,13.3H11.5v18.5l2.3-1.8
		c0.5-0.4,1.4-0.7,2.1-0.7H31V13.3z"/>
</g>
<g>
	<path class="st0" d="M38.1,49.6H11.5C5.2,49.6,0,44.4,0,38.1V11.5C0,5.2,5.2,0,11.5,0h26.6c6.3,0,11.5,5.2,11.5,11.5v26.6
		C49.6,44.4,44.4,49.6,38.1,49.6z M11.5,1.8c-5.4,0-9.7,4.4-9.7,9.7v26.6c0,5.4,4.4,9.7,9.7,9.7h26.6c5.4,0,9.7-4.4,9.7-9.7V11.5
		c0-5.4-4.4-9.7-9.7-9.7C38.1,1.8,11.5,1.8,11.5,1.8z"/>
</g>
</svg>
