<?xml version="1.0" encoding="utf-8"?>
<!-- Generator: Adobe Illustrator 23.0.6, SVG Export Plug-In . SVG Version: 6.00 Build 0)  -->
<svg version="1.1" id="Warstwa_1" xmlns="http://www.w3.org/2000/svg" xmlns:xlink="http://www.w3.org/1999/xlink" x="0px" y="0px"
	 viewBox="0 0 266.6 80.7" style="enable-background:new 0 0 266.6 80.7;" xml:space="preserve">
<style type="text/css">
	.st0{fill:#FF7D00;}
	.st1{fill:#FFFFFF;}
</style>
<g>
	<g>
		<path class="st0" d="M138.8,73.8c-0.7-0.7-1-1.8-1-3.4v-7.3h-3v-2.2h3.1l0.2-4h2.3v4h4.4v2.2h-4.4v7.1c0,0.9,0.2,1.5,0.5,1.9
			c0.3,0.3,0.9,0.5,1.8,0.5h2.2v2.3h-2.7C140.5,74.8,139.4,74.4,138.8,73.8z"/>
		<path class="st0" d="M147.9,60.9h2l0.3,1.5c1-0.7,2-1.1,2.9-1.4c0.9-0.3,1.8-0.4,2.7-0.4h0.6V63h-0.6c-0.9,0-1.8,0.1-2.7,0.4
			c-0.8,0.2-1.7,0.6-2.6,1.1v10.3h-2.6V60.9z"/>
		<path class="st0" d="M159.1,74c-0.8-0.7-1.2-1.8-1.2-3.3c0-1.6,0.5-2.7,1.4-3.3c0.9-0.7,2.6-1,4.8-1c1.4,0,3.1,0.1,5,0.3v-0.3
			c0-1.3-0.3-2.2-1-2.7c-0.6-0.5-1.8-0.7-3.6-0.7c-1.8,0-3.6,0.3-5.2,0.9l-0.2-2.4c1.8-0.5,3.7-0.8,5.6-0.8c1.7,0,3,0.2,4,0.5
			c1,0.3,1.7,0.8,2.2,1.6c0.5,0.8,0.8,2,0.8,3.6v8.6h-2l-0.3-1.6c-2.1,1.3-4.2,1.9-6.4,1.9C161.2,75.1,159.9,74.8,159.1,74z
			 M166.3,72.3c0.8-0.3,1.8-0.8,2.8-1.4v-2c-1.8-0.2-3.5-0.3-5-0.3c-1.4,0-2.3,0.2-2.9,0.5c-0.5,0.3-0.8,0.8-0.8,1.5
			c0,0.7,0.3,1.3,0.8,1.6c0.5,0.3,1.3,0.5,2.4,0.5C164.6,72.8,165.4,72.6,166.3,72.3z"/>
		<path class="st0" d="M176.1,60.9h2l0.3,1.5c1.1-0.6,2.1-1.1,3-1.4c0.9-0.3,1.9-0.4,2.9-0.4c1.8,0,3.1,0.4,3.9,1.2
			c0.8,0.8,1.3,2.1,1.3,3.9v9.1h-2.6v-8.5c0-1.2-0.3-2-0.8-2.5c-0.5-0.5-1.4-0.7-2.5-0.7c-0.6,0-1.3,0.1-2,0.3
			c-0.7,0.2-1.7,0.6-2.8,1.3v10.2h-2.6V60.9z"/>
		<path class="st0" d="M192.7,74.2l0.2-2.5c1,0.3,2,0.6,3,0.8c1,0.2,2.1,0.2,3.4,0.2c1.5,0,2.6-0.1,3.1-0.4c0.6-0.3,0.9-0.8,0.9-1.5
			c0-0.6-0.2-1-0.7-1.3c-0.4-0.2-1.3-0.4-2.7-0.6l-2-0.2c-1.5-0.1-2.5-0.4-3.2-0.7c-0.7-0.3-1.2-0.7-1.5-1.3
			c-0.3-0.5-0.4-1.2-0.4-2.1c0-1.6,0.5-2.7,1.5-3.3c1-0.6,2.8-1,5.3-1c2.1,0,3.9,0.2,5.5,0.7l-0.2,2.4c-0.9-0.3-1.8-0.4-2.6-0.6
			c-0.9-0.1-1.9-0.2-3-0.2c-1.5,0-2.5,0.1-3.1,0.4c-0.5,0.3-0.8,0.7-0.8,1.4c0,0.6,0.2,1,0.7,1.2c0.4,0.2,1.4,0.4,2.7,0.5l2,0.2
			c1.2,0.1,2.1,0.3,2.8,0.6c0.7,0.3,1.2,0.7,1.6,1.2c0.4,0.5,0.6,1.3,0.6,2.4c0,1.2-0.3,2.1-0.8,2.7c-0.5,0.6-1.2,1-2.2,1.3
			c-1,0.2-2.2,0.4-3.8,0.4C196.7,75.1,194.6,74.8,192.7,74.2z"/>
		<path class="st0" d="M209.4,60.9h2l0.3,1.3c1-0.6,2-1,2.9-1.3c0.9-0.3,2-0.4,3-0.4c2.2,0,3.8,0.6,4.8,1.7c1,1.1,1.5,3,1.5,5.6
			c0,2-0.2,3.4-0.7,4.5c-0.5,1-1.2,1.8-2.1,2.2c-0.9,0.4-2,0.7-3.4,0.7c-2,0-3.8-0.5-5.6-1.5v7.1h-2.6V60.9z M220.3,71.7
			c0.6-0.7,0.9-2,0.9-3.8s-0.3-3.1-0.9-3.8s-1.7-1.1-3.2-1.1c-0.9,0-1.7,0.1-2.5,0.4s-1.6,0.7-2.5,1.2v6.6c0.9,0.6,1.8,1,2.5,1.2
			c0.8,0.3,1.6,0.4,2.5,0.4C218.6,72.8,219.7,72.4,220.3,71.7z"/>
		<path class="st0" d="M231.7,74.9c-0.9-0.2-1.8-0.5-2.5-1c-0.7-0.5-1.2-1.2-1.6-2.1c-0.4-0.9-0.6-2.2-0.6-3.9
			c0-2.7,0.6-4.5,1.7-5.6c1.2-1.1,3.1-1.7,5.9-1.7s4.7,0.6,5.9,1.7c1.2,1.1,1.7,3,1.7,5.6c0,1.3-0.1,2.4-0.4,3.4
			c-0.3,0.9-0.7,1.7-1.3,2.2c-0.6,0.6-1.4,1-2.4,1.3c-1,0.3-2.1,0.4-3.5,0.4C233.6,75.1,232.6,75,231.7,74.9z M238.5,71.7
			c0.7-0.7,1.1-2,1.1-3.9c0-1.9-0.4-3.1-1.1-3.9c-0.7-0.7-2-1.1-3.9-1.1c-1.9,0-3.2,0.4-3.9,1.1c-0.7,0.7-1.1,2-1.1,3.9
			c0,1.9,0.4,3.1,1.1,3.9c0.7,0.7,2,1.1,3.9,1.1S237.8,72.4,238.5,71.7z"/>
		<path class="st0" d="M246.2,60.9h2l0.3,1.5c1-0.7,2-1.1,2.9-1.4c0.9-0.3,1.8-0.4,2.7-0.4h0.6V63h-0.6c-0.9,0-1.8,0.1-2.7,0.4
			c-0.8,0.2-1.7,0.6-2.6,1.1v10.3h-2.6V60.9z"/>
		<path class="st0" d="M259.7,73.8c-0.7-0.7-1-1.8-1-3.4v-7.3h-3v-2.2h3.1l0.2-4h2.3v4h4.4v2.2h-4.4v7.1c0,0.9,0.2,1.5,0.5,1.9
			c0.3,0.3,0.9,0.5,1.8,0.5h2.2v2.3H263C261.4,74.8,260.3,74.4,259.7,73.8z"/>
	</g>
</g>
<g>
	<path class="st1" d="M228.8,37.7V0.7h18.1c3.7,0,6.8,0.3,9.3,1c2.5,0.6,4.5,1.7,6.1,3.1c1.5,1.4,2.6,3.3,3.3,5.7
		c0.7,2.4,1,5.3,1,8.8c0,3.5-0.3,6.4-1,8.8c-0.7,2.4-1.8,4.3-3.3,5.7c-1.5,1.4-3.5,2.5-6.1,3.1c-2.5,0.6-5.6,1-9.3,1H228.8z
		 M239.9,28.5h6.2c2.4,0,4.2-0.2,5.4-0.6c1.2-0.4,2.1-1.2,2.7-2.5c0.6-1.2,0.9-3.3,0.9-6.2c0-2.4-0.2-4.3-0.6-5.6
		c-0.4-1.3-1.2-2.2-2.4-2.8c-1.2-0.6-3.1-0.9-5.9-0.9h-6.2V28.5z"/>
	<path class="st1" d="M31,17.3c-1.1-0.8-2.5-1.3-4-1.7c-1.6-0.4-3.2-0.6-5-0.8L14.7,14c-1.1-0.1-2-0.3-2.6-0.6c-0.6-0.3-1-0.9-1-1.9
		c0-0.5,0.1-1,0.3-1.4c0.2-0.4,0.7-0.7,1.5-0.9C13.7,9.1,15.1,9,17,9c5.2,0,10.2,0.7,15,2l0.6-9.3C27.9,0.6,23,0,17.9,0
		c-5,0-8.7,0.5-11.2,1.4c-2.5,0.9-4.2,2.3-5.2,4c-1,1.8-1.5,4.1-1.5,6.9c0,2.8,0.5,5,1.4,6.4c0.9,1.4,2.3,2.5,4,3.2
		c1.8,0.7,4.1,1.2,7.1,1.5l7.1,0.7c1.6,0.1,2.6,0.4,3.1,0.7c0.5,0.3,0.7,0.9,0.7,1.7c0,1.3-0.5,2-1.5,2.3c-1,0.3-2.7,0.4-5.1,0.4
		c-6.3,0-11.8-0.8-16.4-2.3L0,36.4c4.5,1.3,10,1.9,16.4,1.9c4.3,0,7.7-0.3,10.3-1c2.6-0.7,4.5-1.8,5.9-3.5c1.3-1.7,2-4.2,2-7.7
		c0-2.4-0.3-4.3-0.9-5.6C33,19.2,32.1,18.1,31,17.3z"/>
	<path class="st1" d="M84.6,0.7L73.3,29.8c-11.6,0.2-23.2-5-34.8-1.3c0,3.1,0,6.2,0,9.2c14.4-4.6,28.7,4.6,43.1,0l2.3-6.4h15.3
		l2.3,6.4h11.4L98.6,0.7H84.6z M86.8,23.4l4.8-13.5l4.8,13.5H86.8z"/>
	<polygon class="st1" points="211.9,0.7 211.9,21.1 197.9,0.7 185.2,0.7 185.2,37.7 195.8,37.7 195.8,14.2 211.9,37.7 222.4,37.7 
		222.4,0.7 	"/>
	<polygon class="st1" points="68.6,23.4 68.6,14.5 49.7,14.5 49.7,9.9 72.5,9.9 72.5,0.7 38.6,0.7 38.6,23.4 	"/>
	<path class="st1" d="M154.3,0.7l-10.7,27.8v-0.1h-17V0.7h-11.2v37.1H140l0,0h11.4l2.3-6.4H169l2.3,6.4h11.4L168.3,0.7H154.3z
		 M156.5,23.4l4.8-13.5l4.8,13.5H156.5z"/>
</g>
</svg>
