<?xml version="1.0" encoding="utf-8"?>
<!-- Generator: Adobe Illustrator 23.0.6, SVG Export Plug-In . SVG Version: 6.00 Build 0)  -->
<svg version="1.1" id="Warstwa_1" xmlns="http://www.w3.org/2000/svg" xmlns:xlink="http://www.w3.org/1999/xlink" x="0px" y="0px"
	 viewBox="0 0 1241 41.2" style="enable-background:new 0 0 1241 41.2;" xml:space="preserve">
<style type="text/css">
	.st0{fill:#C0C0C0;}
</style>
<g id="Kształt_1">
	<path class="st0" d="M465.9,41.3C465.9,41.3,465.9,41.3,465.9,41.3H0.5v-1h465.4c0,0,0,0,0,0c17.8,0,34.6-6.9,47.3-19.5
		C526.1,8,543.1,1,561.2,1c0,0,0,0,0,0l679.3,0.3v1L561.2,2c0,0,0,0,0,0c-17.8,0-34.6,6.9-47.3,19.5C501.1,34.2,484,41.2,465.9,41.3
		z"/>
</g>
</svg>
