<?xml version="1.0" encoding="utf-8"?>
<!-- Generator: Adobe Illustrator 23.0.6, SVG Export Plug-In . SVG Version: 6.00 Build 0)  -->
<svg version="1.1" id="Warstwa_1" xmlns="http://www.w3.org/2000/svg" xmlns:xlink="http://www.w3.org/1999/xlink" x="0px" y="0px"
	 viewBox="0 0 49.6 49.6" style="enable-background:new 0 0 49.6 49.6;" xml:space="preserve">
<style type="text/css">
	.st0{fill:#010202;}
</style>
<g>
	<path class="st0" d="M24.8,30.6c-0.5,0-0.9-0.2-1.3-0.5L10.7,18.1c-0.5-0.5-0.9-1.4-0.9-2.1v-0.9c0-1,0.8-1.8,1.8-1.8h26.6
		c1,0,1.8,0.8,1.8,1.8v0.9c0,0.7-0.4,1.6-0.9,2.1L26.1,30.2C25.7,30.5,25.3,30.6,24.8,30.6z M11.5,15.1v0.9c0,0.2,0.2,0.7,0.4,0.8
		l12.9,12.1c0,0,0.1,0,0.1,0l12.9-12.1c0.2-0.2,0.4-0.6,0.4-0.8v-0.9L11.5,15.1z M38.1,15.1H39H38.1C38.1,15.1,38.1,15.1,38.1,15.1
		L38.1,15.1z"/>
</g>
<g>
	<path class="st0" d="M38.1,36.3H11.5c-1,0-1.8-0.8-1.8-1.8V20.4h1.8v14.2h26.6V20.4h1.8v14.2C39.9,35.5,39.1,36.3,38.1,36.3z"/>
</g>
<g>
	<path class="st0" d="M38.1,49.6H11.5C5.2,49.6,0,44.4,0,38.1V11.5C0,5.2,5.2,0,11.5,0h26.6c6.3,0,11.5,5.2,11.5,11.5v26.6
		C49.6,44.4,44.4,49.6,38.1,49.6z M11.5,1.8c-5.4,0-9.7,4.4-9.7,9.7v26.6c0,5.4,4.4,9.7,9.7,9.7h26.6c5.4,0,9.7-4.4,9.7-9.7V11.5
		c0-5.4-4.4-9.7-9.7-9.7H11.5z"/>
</g>
</svg>
