<?xml version="1.0" encoding="utf-8"?>
<!-- Generator: Adobe Illustrator 23.0.6, SVG Export Plug-In . SVG Version: 6.00 Build 0)  -->
<svg version="1.1" id="Warstwa_1" xmlns="http://www.w3.org/2000/svg" xmlns:xlink="http://www.w3.org/1999/xlink" x="0px" y="0px"
	 viewBox="0 0 198.4 198.4" style="enable-background:new 0 0 198.4 198.4;" xml:space="preserve">
<style type="text/css">
	.st0{fill:#010202;}
</style>
<g>
	<path class="st0" d="M141.7,67.3L141.7,67.3l0-21.3c0-3.9-3.2-7.1-7.1-7.1H63.8c-3.9,0-7.1,3.2-7.1,7.1v21.3h0
		c-3.9,0-7.1,3.2-7.1,7.1v21.3h7.1l0-21.3h85v21.3h7.1V74.4C148.8,70.5,145.6,67.3,141.7,67.3z M63.8,46.1h70.9v21.3H63.8L63.8,46.1
		z"/>
	<path class="st0" d="M125,102.8H73.4h-9.6h-7.1v7.1h7.1h4.5l4.8,14.4H56.7v7.1h18.8l4.7,14H56.7v0v7.1v7.1h17.7v-7.1h8.1h33.5h8.1
		v7.1h17.7v-7.1v-7.1v0h-23.4l4.7-14h18.8v-7.1h-16.4l4.8-14.4h4.5h7.1v-7.1h-7.1H125z M115.6,131.1H82.9l-2.4-7.1h37.4L115.6,131.1
		z M87.6,145.3l-2.4-7.1h28l-2.4,7.1H87.6z M120.3,116.9H78.1l-2.4-7.1h46.9L120.3,116.9z"/>
	<path class="st0" d="M152.4,0H46.1C20.7,0,0,20.7,0,46.1v106.3c0,25.4,20.7,46.1,46.1,46.1h106.3c25.4,0,46.1-20.7,46.1-46.1V46.1
		C198.4,20.7,177.8,0,152.4,0z M191.3,152.4c0,21.5-17.5,39-39,39H46.1c-21.5,0-39-17.5-39-39V46.1c0-21.5,17.5-39,39-39h106.3
		c21.5,0,39,17.5,39,39V152.4z"/>
</g>
</svg>
