<?xml version="1.0" encoding="utf-8"?>
<!-- Generator: Adobe Illustrator 23.0.6, SVG Export Plug-In . SVG Version: 6.00 Build 0)  -->
<svg version="1.1" id="Warstwa_1" xmlns="http://www.w3.org/2000/svg" xmlns:xlink="http://www.w3.org/1999/xlink" x="0px" y="0px"
	 viewBox="0 0 42.5 42.5" style="enable-background:new 0 0 42.5 42.5;" xml:space="preserve">
<style type="text/css">
	.st0{fill:#010202;}
</style>
<g>
	<g>
		<path class="st0" d="M32.6,42.5H9.9c-5.4,0-9.9-4.4-9.9-9.9V9.9C0,4.4,4.4,0,9.9,0h22.8c5.4,0,9.9,4.4,9.9,9.9v22.8
			C42.5,38.1,38.1,42.5,32.6,42.5z M9.9,1.5c-4.6,0-8.4,3.7-8.4,8.4v22.8c0,4.6,3.7,8.4,8.4,8.4h22.8c4.6,0,8.4-3.7,8.4-8.4V9.9
			c0-4.6-3.7-8.4-8.4-8.4H9.9z"/>
	</g>
	<g>
		<path class="st0" d="M26.6,31.9h-1.5v-9.1c0-1.3,1-2.3,2.3-2.3h6.1c1.3,0,2.3,1,2.3,2.3v6.1h-1.5v-6.1c0-0.4-0.3-0.8-0.8-0.8h-6.1
			c-0.4,0-0.8,0.3-0.8,0.8V31.9z"/>
	</g>
	<g>
		<path class="st0" d="M17.5,31.9h-1.5v-9.1c0-0.4-0.3-0.8-0.8-0.8H9.1c-0.4,0-0.8,0.3-0.8,0.8v6.1H6.8v-6.1c0-1.3,1-2.3,2.3-2.3
			h6.1c1.3,0,2.3,1,2.3,2.3V31.9z"/>
	</g>
	<g>
		<path class="st0" d="M26.6,28.9h-1.5v-9.1c0-0.4-0.3-0.8-0.8-0.8h-6.1c-0.4,0-0.8,0.3-0.8,0.8v9.1h-1.5v-9.1c0-1.3,1-2.3,2.3-2.3
			h6.1c1.3,0,2.3,1,2.3,2.3V28.9z"/>
	</g>
	<g>
		<path class="st0" d="M12.1,19c-2.1,0-3.8-1.7-3.8-3.8c0-2.1,1.7-3.8,3.8-3.8c2.1,0,3.8,1.7,3.8,3.8C15.9,17.3,14.2,19,12.1,19z
			 M12.1,12.9c-1.3,0-2.3,1-2.3,2.3s1,2.3,2.3,2.3s2.3-1,2.3-2.3S13.4,12.9,12.1,12.9z"/>
	</g>
	<g>
		<path class="st0" d="M21.3,15.9c-2.1,0-3.8-1.7-3.8-3.8s1.7-3.8,3.8-3.8c2.1,0,3.8,1.7,3.8,3.8S23.4,15.9,21.3,15.9z M21.3,9.9
			c-1.3,0-2.3,1-2.3,2.3s1,2.3,2.3,2.3s2.3-1,2.3-2.3S22.5,9.9,21.3,9.9z"/>
	</g>
	<g>
		<path class="st0" d="M30.4,19c-2.1,0-3.8-1.7-3.8-3.8c0-2.1,1.7-3.8,3.8-3.8s3.8,1.7,3.8,3.8C34.2,17.3,32.5,19,30.4,19z
			 M30.4,12.9c-1.3,0-2.3,1-2.3,2.3s1,2.3,2.3,2.3s2.3-1,2.3-2.3S31.6,12.9,30.4,12.9z"/>
	</g>
</g>
</svg>
