<?xml version="1.0" encoding="utf-8"?>
<!-- Generator: Adobe Illustrator 23.0.6, SVG Export Plug-In . SVG Version: 6.00 Build 0)  -->
<svg version="1.1" id="Warstwa_1" xmlns="http://www.w3.org/2000/svg" xmlns:xlink="http://www.w3.org/1999/xlink" x="0px" y="0px"
	 viewBox="0 0 26 26" style="enable-background:new 0 0 26 26;" xml:space="preserve">
<path d="M13,0C5.8,0,0,5.8,0,13s5.8,13,13,13s13-5.8,13-13S20.2,0,13,0z M25,12.5h-5c-0.1-4.9-1.6-9-3.7-11
	C21.1,2.8,24.8,7.2,25,12.5z M13,1L13,1C13,1,13,1,13,1C13,1,13,1,13,1z M12.5,1.1v11.4H7C7.1,6.4,9.5,1.5,12.5,1.1z M12.5,13.5
	v11.4c-3-0.5-5.4-5.4-5.5-11.4H12.5z M13.5,24.9V13.5H19C18.9,19.6,16.5,24.5,13.5,24.9z M13.5,12.5V1.1c3,0.5,5.4,5.4,5.5,11.4
	H13.5z M9.7,1.5C7.6,3.5,6.1,7.6,6,12.5H1C1.2,7.2,4.9,2.8,9.7,1.5z M1,13L1,13C1,13,1,13,1,13C1,13,1,13,1,13z M1,13.5h5
	c0.1,4.9,1.6,9,3.7,11C4.9,23.2,1.2,18.8,1,13.5z M16.3,24.5c2.2-2.1,3.6-6.2,3.7-11h5C24.8,18.8,21.1,23.2,16.3,24.5z"/>
</svg>
