<svg version="1.1" id="Warstwa_1" xmlns="http://www.w3.org/2000/svg" x="0" y="0" viewBox="0 0 51.8 33.7" xml:space="preserve"><style>.st0{fill:#282727}</style><path class="st0" d="M7.2 28.5c0 .4 0 .7-.3.9-.3.2-.6.2-.9.2-.8 0-1.4 0-1.4-1.1v-.7c0-.9.5-1.1 1.4-1.1.8 0 1.2.1 1.2.9v.1h-.8v-.1c0-.3-.2-.3-.5-.3-.4 0-.5.1-.5.5v.4c0 .4 0 .6.5.6.3 0 .5 0 .5-.4v-.1h.8m-.4-4.5l-.1.5h-.8l.9-2.9H8l.9 2.9H8l-.2-.5h-1m.6-1.8L7 23.3h.7L7.4 22zm2.8.9c0-.2-.2-.2-.3-.2-.3 0-.3 0-.3.2 0 .1 0 .2.3.2.7 0 1 .1 1 .6 0 .6-.5.7-1 .7s-1 0-1-.7h.7c0 .2.2.2.3.2.3 0 .3 0 .3-.2s-.1-.2-.3-.2c-.8 0-1-.2-1-.6 0-.6.4-.7 1-.7.4 0 .9 0 .9.5v.1h-.6m2.3.1c0-.2-.2-.2-.3-.2-.3 0-.3 0-.3.2 0 .1 0 .2.3.2.7 0 1 .1 1 .6 0 .6-.5.7-1 .7s-1 0-1-.7h.7c0 .2.2.2.3.2.3 0 .3 0 .3-.2s-.1-.2-.3-.2c-.8 0-1-.2-1-.6 0-.6.4-.7 1-.7.4 0 .9 0 .9.5v.1h-.6m3 .9c0 .3-.1.5-.3.6-.2.1-.4.1-.7.1-.8 0-1-.3-1-1 0-.8.2-1 1-1s1 .2 1 1v.1h-1.3c0 .4.1.5.3.5.2 0 .3 0 .3-.2h.7m-.7-.7c0-.3-.1-.3-.3-.3-.2 0-.3.1-.3.3h.6zm2.2-.2c0-.2-.2-.2-.3-.2-.3 0-.3 0-.3.2 0 .1 0 .2.3.2.7 0 1 .1 1 .6 0 .6-.5.7-1 .7s-1 0-1-.7h.7c0 .2.2.2.3.2.3 0 .3 0 .3-.2s-.1-.2-.3-.2c-.8 0-1-.2-1-.6 0-.6.4-.7 1-.7.4 0 .9 0 .9.5v.1H17m2.3.1c0-.2-.2-.2-.3-.2-.3 0-.3 0-.3.2 0 .1 0 .2.3.2.7 0 1 .1 1 .6 0 .6-.5.7-1 .7s-1 0-1-.7h.7c0 .2.2.2.3.2.3 0 .3 0 .3-.2s-.1-.2-.3-.2c-.8 0-1-.2-1-.6 0-.6.4-.7 1-.7.4 0 .9 0 .9.5v.1h-.6m3 .9c0 .3-.1.5-.3.6-.2.1-.4.1-.7.1-.8 0-1-.3-1-1 0-.8.2-1 1-1s1 .2 1 1v.1H21c0 .4.1.5.3.5.2 0 .3 0 .3-.2h.7m-.7-.7c0-.3-.1-.3-.3-.3-.2 0-.3.1-.3.3h.6zm3 1.2h-.7V24c-.1.3-.3.4-.6.4-.5 0-.8-.2-.8-.7v-.5c0-.6.2-.9.8-.9.2 0 .5 0 .6.3v-1.1h.7v2.8m-1-.4c.3 0 .4-.1.4-.5s0-.5-.4-.5c-.3 0-.3.1-.3.5-.1.4 0 .5.3.5zM9.5 28.6c0 .8-.2 1-1 1s-1-.2-1-1 .2-1 1-1c.9 0 1 .2 1 1m-1.3 0c0 .4 0 .5.4.5.3 0 .3-.1.3-.5s0-.5-.3-.5c-.4 0-.4.1-.4.5zm2.4-1v.3c.1-.2.3-.3.6-.3s.6 0 .6.4c0-.3.3-.4.6-.4.5 0 .7.2.7.7v1.4h-.7v-1.2c0-.2 0-.4-.3-.4s-.3.2-.3.4v1.1h-.7v-1.2c0-.2 0-.3-.3-.3s-.3.1-.3.4v1.1h-.6v-2h.7m3 0h.7v.3c.1-.3.3-.3.6-.3.5 0 .8.2.8.7v.5c0 .6-.2.9-.8.9-.2 0-.5 0-.6-.3v1.2h-.7v-3m.6 1c0 .3 0 .5.3.5s.4-.1.4-.5 0-.5-.4-.5c-.2 0-.3.1-.3.5zm3.1.7c-.1.3-.4.3-.6.3-.5 0-.7-.1-.7-.6s.3-.6.7-.6c.2 0 .5 0 .6.2v-.3c0-.2 0-.3-.3-.3-.2 0-.3 0-.3.2H16c0-.6.5-.6.9-.6.7 0 1 .1 1 .8v1.3h-.7l.1-.4m-.7-.3c0 .2.2.2.3.2.3 0 .4 0 .4-.2s-.1-.2-.4-.2c-.2 0-.3 0-.3.2zm2.5-1.4v.4c.1-.3.3-.4.6-.4.4 0 .7.2.7.6v1.4h-.7v-1.2c0-.2-.1-.3-.3-.3-.3 0-.3.2-.3.4v1.1h-.7v-2h.7m3.1 2.2c-.1.5-.3.7-.9.7h-.2V30h.1c.3 0 .3-.2.3-.4h-.4l-.6-2h.7l.4 1.6.3-1.6h.7l-.4 2.2M4 17.1h2.9c0 .5.4.7.9.8.5.1 1.6.2 2.3 0 .5-.1.6-.3.6-.7 0-.7 0-.8-2.9-.8-2.4 0-3.9-.3-3.9-2.2 0-1.4.6-2.4 3.5-2.4H10c2.7 0 3.4.9 3.4 2.2v.2h-2.9c0-.6-.1-.8-1.1-.8H7.9c-.5 0-.9.2-.9.6 0 .7.3.8 2.8.8 1.9 0 4.1.1 4.1 2.3 0 2-2 2.4-4.2 2.4H6.9c-1 0-2.9-.4-2.9-2v-.4m34.7 0h2.9c0 .5.4.7.9.8.5.1 1.6.2 2.3 0 .5-.1.6-.3.6-.7 0-.7 0-.8-2.9-.8-2.4 0-3.9-.3-3.9-2.2 0-1.4.6-2.4 3.5-2.4h2.6c2.7 0 3.4.9 3.4 2.2v.2h-2.9c0-.6-.1-.8-1.1-.8h-1.6c-.5 0-.9.2-.9.6 0 .7.3.8 2.8.8 1.9 0 4.1.1 4.1 2.3 0 2-2 2.4-4.2 2.4h-2.8c-1 0-2.9-.4-2.9-2v-.4m-23.7-2.5c0-2.2 2.4-2.7 4.4-2.7h1.9c2.1 0 4.4.5 4.4 2.7v2.2c0 .8-.2 1-.2 1l1.2.6-1.3 1.1-1.1-.6c-.6.4-1.8.6-2.8.6H19c-2.1 0-4.2-.5-4.2-2.7v-2.2m3.3 1.5c0 1.5.2 1.7 2.2 1.7.6 0 1.5-.1 1.5-.1.1 0-2.1-.9-2.1-.9l1.2-1.1 1.6.8v-1.2c0-.9.2-1.7-2.2-1.7-2.4 0-2.2.8-2.2 1.7v.8zm12.3-4.2H35l3.5 7.5h-3l-.7-1.3h-4.1l-.7 1.3h-3.2l3.6-7.5m.9 4.8h2.9l-1.5-3.3-1.4 3.3zM14 11.5h-2.6S25.2 1.3 38.6.2c3.4-.3 7-.4 10 1.2 6 3.3 1.8 10.1 1.8 10.1l-3.2.1S53.1 1 40.3.5C28 .4 14.2 11 14 11.5"/><path class="st0" d="M2.7 20.3s-5.7 7.2-.4 11.4c5.4 4.3 18.1 1.1 26.5-2.6 8.4-3.7 14-8.9 14-8.9h-2.5S29.5 30.5 16.1 32.9C2.8 35.3.8 28.1 5.7 20.3h-3"/></svg>