<svg version="1.1" id="Warstwa_1" xmlns="http://www.w3.org/2000/svg" x="0" y="0" viewBox="0 0 49.6 49.6" xml:space="preserve"><style>.st0{fill:#ff7d00}</style><path class="st0" d="M38.6 38.6c-.3 0-.6-.1-.9-.4l-3-2.4c-.2-.2-.7-.4-1-.4H18.6c-1 0-1.8-.8-1.8-1.8V17.7c0-1 .8-1.8 1.8-1.8h19.5c1 0 1.8.8 1.8 1.8v19.5c0 .6-.3 1-.7 1.3-.2 0-.4.1-.6.1zm-.5-20.9H18.6v15.9h15.1c.7 0 1.6.3 2.1.7l2.3 1.8V17.7z"/><path class="st0" d="M11 34.2c-.2 0-.3 0-.5-.1-.4-.2-.7-.7-.7-1.3V13.3c0-1 .8-1.8 1.8-1.8H31c1 0 1.8.8 1.8 1.8v15.9c0 1-.8 1.8-1.8 1.8H15.9c-.3 0-.8.2-1 .4l-3 2.4c-.3.2-.6.4-.9.4zm20-20.9H11.5v18.5l2.3-1.8c.5-.4 1.4-.7 2.1-.7H31v-16z"/><path class="st0" d="M38.1 49.6H11.5C5.2 49.6 0 44.4 0 38.1V11.5C0 5.2 5.2 0 11.5 0h26.6c6.3 0 11.5 5.2 11.5 11.5v26.6c0 6.3-5.2 11.5-11.5 11.5zM11.5 1.8c-5.4 0-9.7 4.4-9.7 9.7v26.6c0 5.4 4.4 9.7 9.7 9.7h26.6c5.4 0 9.7-4.4 9.7-9.7V11.5c0-5.4-4.4-9.7-9.7-9.7H11.5z"/></svg>