<svg version="1.1" id="Warstwa_1" xmlns="http://www.w3.org/2000/svg" x="0" y="0" viewBox="0 0 266.6 80.7" xml:space="preserve"><style>.st1{fill:#fff}</style><path d="M138.8 73.8c-.7-.7-1-1.8-1-3.4v-7.3h-3v-2.2h3.1l.2-4h2.3v4h4.4v2.2h-4.4v7.1c0 .9.2 1.5.5 1.9.3.3.9.5 1.8.5h2.2v2.3h-2.7c-1.7-.1-2.8-.5-3.4-1.1zm9.1-12.9h2l.3 1.5c1-.7 2-1.1 2.9-1.4.9-.3 1.8-.4 2.7-.4h.6V63h-.6c-.9 0-1.8.1-2.7.4-.8.2-1.7.6-2.6 1.1v10.3h-2.6V60.9zM159.1 74c-.8-.7-1.2-1.8-1.2-3.3 0-1.6.5-2.7 1.4-3.3.9-.7 2.6-1 4.8-1 1.4 0 3.1.1 5 .3v-.3c0-1.3-.3-2.2-1-2.7-.6-.5-1.8-.7-3.6-.7s-3.6.3-5.2.9l-.2-2.4c1.8-.5 3.7-.8 5.6-.8 1.7 0 3 .2 4 .5s1.7.8 2.2 1.6c.5.8.8 2 .8 3.6V75h-2l-.3-1.6c-2.1 1.3-4.2 1.9-6.4 1.9-1.8-.2-3.1-.5-3.9-1.3zm7.2-1.7c.8-.3 1.8-.8 2.8-1.4v-2c-1.8-.2-3.5-.3-5-.3-1.4 0-2.3.2-2.9.5-.5.3-.8.8-.8 1.5s.3 1.3.8 1.6c.5.3 1.3.5 2.4.5 1 .1 1.8-.1 2.7-.4zm9.8-11.4h2l.3 1.5c1.1-.6 2.1-1.1 3-1.4.9-.3 1.9-.4 2.9-.4 1.8 0 3.1.4 3.9 1.2.8.8 1.3 2.1 1.3 3.9v9.1h-2.6v-8.5c0-1.2-.3-2-.8-2.5s-1.4-.7-2.5-.7c-.6 0-1.3.1-2 .3-.7.2-1.7.6-2.8 1.3v10.2h-2.6v-14zm16.6 13.3l.2-2.5c1 .3 2 .6 3 .8 1 .2 2.1.2 3.4.2 1.5 0 2.6-.1 3.1-.4.6-.3.9-.8.9-1.5 0-.6-.2-1-.7-1.3-.4-.2-1.3-.4-2.7-.6l-2-.2c-1.5-.1-2.5-.4-3.2-.7-.7-.3-1.2-.7-1.5-1.3-.3-.5-.4-1.2-.4-2.1 0-1.6.5-2.7 1.5-3.3 1-.6 2.8-1 5.3-1 2.1 0 3.9.2 5.5.7l-.2 2.4c-.9-.3-1.8-.4-2.6-.6-.9-.1-1.9-.2-3-.2-1.5 0-2.5.1-3.1.4-.5.3-.8.7-.8 1.4 0 .6.2 1 .7 1.2.4.2 1.4.4 2.7.5l2 .2c1.2.1 2.1.3 2.8.6.7.3 1.2.7 1.6 1.2.4.5.6 1.3.6 2.4 0 1.2-.3 2.1-.8 2.7-.5.6-1.2 1-2.2 1.3-1 .2-2.2.4-3.8.4-2.3.2-4.4-.1-6.3-.7zm16.7-13.3h2l.3 1.3c1-.6 2-1 2.9-1.3.9-.3 2-.4 3-.4 2.2 0 3.8.6 4.8 1.7s1.5 3 1.5 5.6c0 2-.2 3.4-.7 4.5-.5 1-1.2 1.8-2.1 2.2-.9.4-2 .7-3.4.7-2 0-3.8-.5-5.6-1.5v7.1h-2.6V60.9zm10.9 10.8c.6-.7.9-2 .9-3.8s-.3-3.1-.9-3.8-1.7-1.1-3.2-1.1c-.9 0-1.7.1-2.5.4s-1.6.7-2.5 1.2v6.6c.9.6 1.8 1 2.5 1.2.8.3 1.6.4 2.5.4 1.5 0 2.6-.4 3.2-1.1zm11.4 3.2c-.9-.2-1.8-.5-2.5-1s-1.2-1.2-1.6-2.1c-.4-.9-.6-2.2-.6-3.9 0-2.7.6-4.5 1.7-5.6 1.2-1.1 3.1-1.7 5.9-1.7s4.7.6 5.9 1.7c1.2 1.1 1.7 3 1.7 5.6 0 1.3-.1 2.4-.4 3.4-.3.9-.7 1.7-1.3 2.2-.6.6-1.4 1-2.4 1.3-1 .3-2.1.4-3.5.4-1-.1-2-.2-2.9-.3zm6.8-3.2c.7-.7 1.1-2 1.1-3.9s-.4-3.1-1.1-3.9c-.7-.7-2-1.1-3.9-1.1s-3.2.4-3.9 1.1c-.7.7-1.1 2-1.1 3.9s.4 3.1 1.1 3.9c.7.7 2 1.1 3.9 1.1s3.2-.4 3.9-1.1zm7.7-10.8h2l.3 1.5c1-.7 2-1.1 2.9-1.4.9-.3 1.8-.4 2.7-.4h.6V63h-.6c-.9 0-1.8.1-2.7.4-.8.2-1.7.6-2.6 1.1v10.3h-2.6V60.9zm13.5 12.9c-.7-.7-1-1.8-1-3.4v-7.3h-3v-2.2h3.1l.2-4h2.3v4h4.4v2.2h-4.4v7.1c0 .9.2 1.5.5 1.9.3.3.9.5 1.8.5h2.2v2.3H263c-1.6-.1-2.7-.5-3.3-1.1z" fill="#ff7d00"/><path class="st1" d="M228.8 37.7V.7h18.1c3.7 0 6.8.3 9.3 1 2.5.6 4.5 1.7 6.1 3.1 1.5 1.4 2.6 3.3 3.3 5.7.7 2.4 1 5.3 1 8.8 0 3.5-.3 6.4-1 8.8-.7 2.4-1.8 4.3-3.3 5.7-1.5 1.4-3.5 2.5-6.1 3.1-2.5.6-5.6 1-9.3 1h-18.1zm11.1-9.2h6.2c2.4 0 4.2-.2 5.4-.6 1.2-.4 2.1-1.2 2.7-2.5.6-1.2.9-3.3.9-6.2 0-2.4-.2-4.3-.6-5.6-.4-1.3-1.2-2.2-2.4-2.8-1.2-.6-3.1-.9-5.9-.9H240v18.6zM31 17.3c-1.1-.8-2.5-1.3-4-1.7-1.6-.4-3.2-.6-5-.8l-7.3-.8c-1.1-.1-2-.3-2.6-.6-.6-.3-1-.9-1-1.9 0-.5.1-1 .3-1.4.2-.4.7-.7 1.5-.9.8-.1 2.2-.2 4.1-.2 5.2 0 10.2.7 15 2l.6-9.3C27.9.6 23 0 17.9 0c-5 0-8.7.5-11.2 1.4-2.5.9-4.2 2.3-5.2 4C.5 7.2 0 9.5 0 12.3c0 2.8.5 5 1.4 6.4.9 1.4 2.3 2.5 4 3.2 1.8.7 4.1 1.2 7.1 1.5l7.1.7c1.6.1 2.6.4 3.1.7.5.3.7.9.7 1.7 0 1.3-.5 2-1.5 2.3-1 .3-2.7.4-5.1.4-6.3 0-11.8-.8-16.4-2.3L0 36.4c4.5 1.3 10 1.9 16.4 1.9 4.3 0 7.7-.3 10.3-1 2.6-.7 4.5-1.8 5.9-3.5 1.3-1.7 2-4.2 2-7.7 0-2.4-.3-4.3-.9-5.6-.7-1.3-1.6-2.4-2.7-3.2zM84.6.7L73.3 29.8c-11.6.2-23.2-5-34.8-1.3v9.2c14.4-4.6 28.7 4.6 43.1 0l2.3-6.4h15.3l2.3 6.4h11.4L98.6.7h-14zm2.2 22.7l4.8-13.5 4.8 13.5h-9.6zM211.9.7v20.4L197.9.7h-12.7v37h10.6V14.2l16.1 23.5h10.5V.7z"/><path class="st1" d="M68.6 23.4v-8.9H49.7V9.9h22.8V.7H38.6v22.7zM154.3.7l-10.7 27.8v-.1h-17V.7h-11.2v37.1h36l2.3-6.4H169l2.3 6.4h11.4L168.3.7h-14zm2.2 22.7l4.8-13.5 4.8 13.5h-9.6z"/></svg>